<svg width="22" height="22" viewBox="0 0 22 22" fill="none" xmlns="http://www.w3.org/2000/svg">
<path d="M16.6375 8.38275L16.3625 16.7063C16.3391 17.4192 16.0388 18.0949 15.5253 18.5899C15.0119 19.085 14.3257 19.3605 13.6125 19.358H8.38749C7.6747 19.3606 6.98894 19.0854 6.47558 18.5909C5.96222 18.0964 5.66161 17.4214 5.63749 16.7091L5.36249 8.38275C5.35647 8.20042 5.42313 8.02316 5.54781 7.88997C5.67249 7.75679 5.84496 7.67858 6.0273 7.67257C6.20964 7.66655 6.3869 7.73321 6.52008 7.85789C6.65327 7.98257 6.73147 8.15504 6.73749 8.33738L7.01249 16.663C7.02618 17.0184 7.17707 17.3547 7.43346 17.6012C7.68986 17.8478 8.0318 17.9853 8.38749 17.9851H13.6125C13.9686 17.9853 14.311 17.8473 14.5674 17.6002C14.8239 17.3531 14.9745 17.0162 14.9875 16.6603L15.2625 8.33738C15.2685 8.15504 15.3467 7.98257 15.4799 7.85789C15.6131 7.73321 15.7903 7.66655 15.9727 7.67257C16.155 7.67858 16.3275 7.75679 16.4522 7.88997C16.5768 8.02316 16.6435 8.20042 16.6375 8.38275ZM17.5471 5.61282C17.5471 5.79515 17.4746 5.97002 17.3457 6.09895C17.2168 6.22788 17.0419 6.30032 16.8596 6.30032H5.14111C4.95878 6.30032 4.78391 6.22788 4.65498 6.09895C4.52605 5.97002 4.45361 5.79515 4.45361 5.61282C4.45361 5.43048 4.52605 5.25561 4.65498 5.12668C4.78391 4.99775 4.95878 4.92532 5.14111 4.92532H7.27236C7.4902 4.9259 7.70046 4.84542 7.86222 4.69954C8.02399 4.55366 8.1257 4.3528 8.14755 4.13607C8.19828 3.62765 8.43648 3.15633 8.81573 2.81394C9.19498 2.47155 9.68811 2.28261 10.1991 2.28394H11.8009C12.3119 2.28261 12.805 2.47155 13.1842 2.81394C13.5635 3.15633 13.8017 3.62765 13.8524 4.13607C13.8743 4.3528 13.976 4.55366 14.1378 4.69954C14.2995 4.84542 14.5098 4.9259 14.7276 4.92532H16.8589C17.0412 4.92532 17.2161 4.99775 17.345 5.12668C17.4739 5.25561 17.5464 5.43048 17.5464 5.61282H17.5471ZM9.34105 4.92532H12.6603C12.57 4.71889 12.5109 4.50016 12.485 4.27632C12.468 4.10685 12.3886 3.94975 12.2624 3.83543C12.1361 3.72112 11.9719 3.65774 11.8016 3.65757H10.1997C10.0294 3.65774 9.86523 3.72112 9.73898 3.83543C9.61272 3.94975 9.53339 4.10685 9.51636 4.27632C9.49026 4.50019 9.43163 4.71893 9.34105 4.92532ZM10.0334 15.3416V9.48757C10.0334 9.30523 9.96093 9.13036 9.832 9.00143C9.70307 8.8725 9.5282 8.80007 9.34586 8.80007C9.16353 8.80007 8.98866 8.8725 8.85973 9.00143C8.7308 9.13036 8.65836 9.30523 8.65836 9.48757V15.3444C8.65836 15.5267 8.7308 15.7016 8.85973 15.8305C8.98866 15.9594 9.16353 16.0319 9.34586 16.0319C9.5282 16.0319 9.70307 15.9594 9.832 15.8305C9.96093 15.7016 10.0334 15.5267 10.0334 15.3444V15.3416ZM13.343 15.3416V9.48757C13.343 9.30523 13.2706 9.13036 13.1416 9.00143C13.0127 8.8725 12.8378 8.80007 12.6555 8.80007C12.4732 8.80007 12.2983 8.8725 12.1694 9.00143C12.0404 9.13036 11.968 9.30523 11.968 9.48757V15.3444C11.968 15.5267 12.0404 15.7016 12.1694 15.8305C12.2983 15.9594 12.4732 16.0319 12.6555 16.0319C12.8378 16.0319 13.0127 15.9594 13.1416 15.8305C13.2706 15.7016 13.343 15.5267 13.343 15.3444V15.3416Z" fill="#FD6A6A"/>
</svg>
