<svg width="20" height="20" viewBox="0 0 20 20" fill="none" xmlns="http://www.w3.org/2000/svg">
<path d="M17.5 11.6667C17.2789 11.6667 17.067 11.7545 16.9107 11.9108C16.7544 12.0671 16.6666 12.2791 16.6666 12.5001V15.8334C16.6666 16.0544 16.5788 16.2664 16.4225 16.4227C16.2663 16.579 16.0543 16.6667 15.8333 16.6667H4.16663C3.94561 16.6667 3.73365 16.579 3.57737 16.4227C3.42109 16.2664 3.33329 16.0544 3.33329 15.8334V12.5001C3.33329 12.2791 3.2455 12.0671 3.08921 11.9108C2.93293 11.7545 2.72097 11.6667 2.49996 11.6667C2.27895 11.6667 2.06698 11.7545 1.9107 11.9108C1.75442 12.0671 1.66663 12.2791 1.66663 12.5001V15.8334C1.66663 16.4965 1.93002 17.1323 2.39886 17.6012C2.8677 18.07 3.50358 18.3334 4.16663 18.3334H15.8333C16.4963 18.3334 17.1322 18.07 17.6011 17.6012C18.0699 17.1323 18.3333 16.4965 18.3333 15.8334V12.5001C18.3333 12.2791 18.2455 12.0671 18.0892 11.9108C17.9329 11.7545 17.721 11.6667 17.5 11.6667ZM9.40829 13.0917C9.48755 13.1676 9.581 13.2271 9.68329 13.2667C9.78304 13.3108 9.8909 13.3336 9.99996 13.3336C10.109 13.3336 10.2169 13.3108 10.3166 13.2667C10.4189 13.2271 10.5124 13.1676 10.5916 13.0917L13.925 9.75841C14.0819 9.60149 14.17 9.38867 14.17 9.16675C14.17 8.94483 14.0819 8.732 13.925 8.57508C13.768 8.41816 13.5552 8.33001 13.3333 8.33001C13.1114 8.33001 12.8985 8.41816 12.7416 8.57508L10.8333 10.4917V2.50008C10.8333 2.27907 10.7455 2.06711 10.5892 1.91083C10.4329 1.75455 10.221 1.66675 9.99996 1.66675C9.77895 1.66675 9.56698 1.75455 9.4107 1.91083C9.25442 2.06711 9.16663 2.27907 9.16663 2.50008V10.4917L7.25829 8.57508C7.18059 8.49738 7.08835 8.43575 6.98683 8.3937C6.88532 8.35165 6.77651 8.33001 6.66663 8.33001C6.55674 8.33001 6.44794 8.35165 6.34642 8.3937C6.2449 8.43575 6.15266 8.49738 6.07496 8.57508C5.99726 8.65278 5.93563 8.74502 5.89358 8.84654C5.85153 8.94806 5.82988 9.05687 5.82988 9.16675C5.82988 9.27663 5.85153 9.38544 5.89358 9.48696C5.93563 9.58847 5.99726 9.68072 6.07496 9.75841L9.40829 13.0917Z" fill="#95BF5C"/>
</svg>
