<svg width="17" height="17" viewBox="0 0 17 17" fill="none" xmlns="http://www.w3.org/2000/svg">
<path d="M2.5 13.3382H6.03333C6.14301 13.3388 6.25172 13.3178 6.35325 13.2763C6.45479 13.2348 6.54713 13.1737 6.625 13.0965L12.3917 7.3215L14.7583 5.00483C14.8364 4.92736 14.8984 4.8352 14.9407 4.73365C14.9831 4.6321 15.0048 4.52318 15.0048 4.41317C15.0048 4.30316 14.9831 4.19423 14.9407 4.09268C14.8984 3.99114 14.8364 3.89897 14.7583 3.8215L11.225 0.246499C11.1475 0.168392 11.0554 0.106396 10.9538 0.0640891C10.8523 0.0217819 10.7433 0 10.6333 0C10.5233 0 10.4144 0.0217819 10.3129 0.0640891C10.2113 0.106396 10.1191 0.168392 10.0417 0.246499L7.69167 2.60483L1.90833 8.37983C1.8311 8.4577 1.76999 8.55005 1.72852 8.65158C1.68705 8.75311 1.66603 8.86183 1.66667 8.9715V12.5048C1.66667 12.7258 1.75446 12.9378 1.91074 13.0941C2.06702 13.2504 2.27899 13.3382 2.5 13.3382ZM10.6333 2.01317L12.9917 4.3715L11.8083 5.55483L9.45 3.1965L10.6333 2.01317ZM3.33333 9.31317L8.275 4.3715L10.6333 6.72983L5.69167 11.6715H3.33333V9.31317ZM15.8333 15.0048H0.833333C0.61232 15.0048 0.400358 15.0926 0.244078 15.2489C0.0877973 15.4052 0 15.6172 0 15.8382C0 16.0592 0.0877973 16.2711 0.244078 16.4274C0.400358 16.5837 0.61232 16.6715 0.833333 16.6715H15.8333C16.0543 16.6715 16.2663 16.5837 16.4226 16.4274C16.5789 16.2711 16.6667 16.0592 16.6667 15.8382C16.6667 15.6172 16.5789 15.4052 16.4226 15.2489C16.2663 15.0926 16.0543 15.0048 15.8333 15.0048Z" fill="#448AFF"/>
</svg>
