<svg width="22" height="22" viewBox="0 0 22 22" fill="none" xmlns="http://www.w3.org/2000/svg">
<path d="M18.3332 8.19492C18.3236 8.11071 18.3052 8.02775 18.2782 7.94742V7.86492C18.2341 7.77067 18.1753 7.68403 18.104 7.60825L12.604 2.10825C12.5282 2.03695 12.4416 1.97816 12.3473 1.93409H12.2648L11.9715 1.83325H6.4165C5.68716 1.83325 4.98769 2.12298 4.47196 2.63871C3.95624 3.15443 3.6665 3.85391 3.6665 4.58325V17.4166C3.6665 18.1459 3.95624 18.8454 4.47196 19.3611C4.98769 19.8769 5.68716 20.1666 6.4165 20.1666H15.5832C16.3125 20.1666 17.012 19.8769 17.5277 19.3611C18.0434 18.8454 18.3332 18.1459 18.3332 17.4166V8.24992C18.3332 8.24992 18.3332 8.24992 18.3332 8.19492ZM12.8332 4.95909L15.2073 7.33325H12.8332V4.95909ZM16.4998 17.4166C16.4998 17.6597 16.4033 17.8929 16.2314 18.0648C16.0594 18.2367 15.8263 18.3333 15.5832 18.3333H6.4165C6.17339 18.3333 5.94023 18.2367 5.76832 18.0648C5.59641 17.8929 5.49984 17.6597 5.49984 17.4166V4.58325C5.49984 4.34014 5.59641 4.10698 5.76832 3.93507C5.94023 3.76316 6.17339 3.66659 6.4165 3.66659H10.9998V8.24992C10.9998 8.49303 11.0964 8.72619 11.2683 8.8981C11.4402 9.07001 11.6734 9.16659 11.9165 9.16659H16.4998V17.4166Z" fill="#595959"/>
</svg>
