<svg width="24" height="24" viewBox="0 0 24 24" fill="none" xmlns="http://www.w3.org/2000/svg">
<path fill-rule="evenodd" clip-rule="evenodd" d="M11.9426 1.25H13.5C13.9142 1.25 14.25 1.58579 14.25 2C14.25 2.41421 13.9142 2.75 13.5 2.75H12C9.62177 2.75 7.91356 2.75159 6.61358 2.92637C5.33517 3.09825 4.56445 3.42514 3.9948 3.9948C3.42514 4.56445 3.09825 5.33517 2.92637 6.61358C2.75159 7.91356 2.75 9.62177 2.75 12C2.75 14.3782 2.75159 16.0864 2.92637 17.3864C3.09825 18.6648 3.42514 19.4355 3.9948 20.0052C4.56445 20.5749 5.33517 20.9018 6.61358 21.0736C7.91356 21.2484 9.62177 21.25 12 21.25C14.3782 21.25 16.0864 21.2484 17.3864 21.0736C18.6648 20.9018 19.4355 20.5749 20.0052 20.0052C20.5749 19.4355 20.9018 18.6648 21.0736 17.3864C21.2484 16.0864 21.25 14.3782 21.25 12V10.5C21.25 10.0858 21.5858 9.75 22 9.75C22.4142 9.75 22.75 10.0858 22.75 10.5V12.0574C22.75 14.3658 22.75 16.1748 22.5603 17.5863C22.366 19.031 21.9607 20.1711 21.0659 21.0659C20.1711 21.9607 19.031 22.366 17.5863 22.5603C16.1748 22.75 14.3658 22.75 12.0574 22.75H11.9426C9.63423 22.75 7.82519 22.75 6.41371 22.5603C4.96897 22.366 3.82895 21.9607 2.93414 21.0659C2.03933 20.1711 1.63399 19.031 1.43975 17.5863C1.24998 16.1748 1.24999 14.3658 1.25 12.0574V11.9426C1.24999 9.63423 1.24998 7.82519 1.43975 6.41371C1.63399 4.96897 2.03933 3.82895 2.93414 2.93414C3.82895 2.03933 4.96897 1.63399 6.41371 1.43975C7.82519 1.24998 9.63423 1.24999 11.9426 1.25Z" fill="white"/>
<path fill-rule="evenodd" clip-rule="evenodd" d="M16.7706 2.27591C18.1384 0.90803 20.3562 0.90803 21.7241 2.27591C23.092 3.6438 23.092 5.86158 21.7241 7.22947L15.076 13.8776C14.7047 14.2489 14.4721 14.4815 14.2126 14.684C13.9069 14.9224 13.5761 15.1268 13.2262 15.2936C12.929 15.4352 12.617 15.5392 12.1188 15.7052L9.21428 16.6734C8.67803 16.8521 8.08682 16.7126 7.68713 16.3129C7.28744 15.9132 7.14787 15.322 7.32662 14.7857L8.29479 11.8812C8.46081 11.3831 8.56481 11.071 8.70642 10.7739C8.87321 10.4239 9.07763 10.0931 9.31607 9.78742C9.51851 9.52787 9.75112 9.29529 10.1225 8.92401L16.7706 2.27591ZM20.6634 3.33657C19.8813 2.55448 18.6133 2.55448 17.8312 3.33657L17.1824 3.98539L11.2175 9.95026C10.801 10.3668 10.6377 10.532 10.4988 10.7099C10.3274 10.9297 10.1804 11.1676 10.0605 11.4192C9.96339 11.623 9.8887 11.8429 9.70243 12.4017L8.7545 15.2455L11.5983 14.2976C12.1571 14.1113 12.3771 14.0366 12.5808 13.9395C12.8325 13.8196 13.0703 13.6726 13.2901 13.5012C13.4681 13.3624 13.6332 13.199 14.0498 12.7825L20.6634 6.16881C21.4455 5.38671 21.4455 4.11867 20.6634 3.33657Z" fill="white"/>
<path fill-rule="evenodd" clip-rule="evenodd" d="M15.9037 3.49983C15.9036 3.49951 15.9036 3.49921 16.6523 3.45516C17.401 3.41112 17.401 3.41082 17.401 3.41053L17.4009 3.40894L17.4008 3.40725C17.4011 3.41076 17.4018 3.41868 17.4033 3.43137C17.4062 3.45679 17.4119 3.49964 17.4222 3.5571C17.4429 3.67231 17.4818 3.84422 17.5535 4.05077C17.6968 4.46383 17.968 5.00782 18.4803 5.5201C18.9926 6.03238 19.5366 6.30357 19.9496 6.44687C20.1562 6.51853 20.3281 6.55749 20.4433 6.57817C20.5007 6.58849 20.5436 6.59416 20.569 6.59708C20.5817 6.59853 20.59 6.59929 20.5935 6.59959C20.5952 6.59974 20.5958 6.59978 20.5951 6.59973L20.5935 6.59959L20.5914 6.59948L20.5904 6.59942C20.5901 6.5994 20.5893 6.59935 20.5452 7.34806C20.5012 8.09676 20.5009 8.09675 20.5006 8.09673L20.4985 8.0966L20.4953 8.0964L20.4873 8.09585L20.4654 8.09411C20.4481 8.09263 20.4256 8.09046 20.3982 8.08732C20.3434 8.08104 20.2691 8.07088 20.1783 8.05458C19.997 8.02204 19.7482 7.96469 19.458 7.86401C18.8775 7.66263 18.1239 7.28501 17.4196 6.58076C16.7154 5.87651 16.3377 5.12287 16.1364 4.54243C16.0357 4.25223 15.9783 4.00342 15.9458 3.8221C15.9295 3.73129 15.9193 3.65693 15.9131 3.60219C15.9099 3.57481 15.9078 3.55228 15.9063 3.535L15.9045 3.51304L15.904 3.50509L15.9038 3.50189L15.9037 3.49983ZM8.94298 13.3698L10.6306 15.0574L9.56991 16.118L7.88232 14.4304L8.94298 13.3698Z" fill="white"/>
</svg>
