<svg width="40" height="40" viewBox="0 0 40 40" fill="none" xmlns="http://www.w3.org/2000/svg">
<path d="M14.5167 12.8499L18.3334 9.01657V24.9999C18.3334 25.4419 18.509 25.8659 18.8215 26.1784C19.1341 26.491 19.558 26.6666 20 26.6666C20.4421 26.6666 20.866 26.491 21.1786 26.1784C21.4911 25.8659 21.6667 25.4419 21.6667 24.9999V9.01657L25.4834 12.8499C25.6383 13.0061 25.8226 13.1301 26.0257 13.2147C26.2288 13.2993 26.4467 13.3429 26.6667 13.3429C26.8867 13.3429 27.1046 13.2993 27.3077 13.2147C27.5108 13.1301 27.6951 13.0061 27.85 12.8499C28.0063 12.695 28.1302 12.5106 28.2149 12.3075C28.2995 12.1044 28.343 11.8866 28.343 11.6666C28.343 11.4466 28.2995 11.2287 28.2149 11.0256C28.1302 10.8225 28.0063 10.6382 27.85 10.4832L21.1834 3.81658C21.0249 3.66484 20.838 3.5459 20.6334 3.46658C20.2276 3.29988 19.7725 3.29988 19.3667 3.46658C19.1621 3.5459 18.9752 3.66484 18.8167 3.81658L12.15 10.4832C11.9946 10.6386 11.8714 10.8231 11.7873 11.0262C11.7032 11.2292 11.6599 11.4468 11.6599 11.6666C11.6599 11.8863 11.7032 12.104 11.7873 12.307C11.8714 12.51 11.9946 12.6945 12.15 12.8499C12.3054 13.0053 12.4899 13.1286 12.693 13.2127C12.896 13.2968 13.1136 13.3401 13.3334 13.3401C13.5531 13.3401 13.7708 13.2968 13.9738 13.2127C14.1768 13.1286 14.3613 13.0053 14.5167 12.8499ZM35 19.9999C34.558 19.9999 34.1341 20.1755 33.8215 20.4881C33.509 20.8006 33.3334 21.2245 33.3334 21.6666V31.6666C33.3334 32.1086 33.1578 32.5325 32.8452 32.8451C32.5327 33.1576 32.1087 33.3332 31.6667 33.3332H8.33337C7.89135 33.3332 7.46742 33.1576 7.15486 32.8451C6.8423 32.5325 6.66671 32.1086 6.66671 31.6666V21.6666C6.66671 21.2245 6.49111 20.8006 6.17855 20.4881C5.86599 20.1755 5.44207 19.9999 5.00004 19.9999C4.55801 19.9999 4.13409 20.1755 3.82153 20.4881C3.50897 20.8006 3.33337 21.2245 3.33337 21.6666V31.6666C3.33337 32.9927 3.86016 34.2644 4.79784 35.2021C5.73552 36.1398 7.00729 36.6666 8.33337 36.6666H31.6667C32.9928 36.6666 34.2646 36.1398 35.2022 35.2021C36.1399 34.2644 36.6667 32.9927 36.6667 31.6666V21.6666C36.6667 21.2245 36.4911 20.8006 36.1786 20.4881C35.866 20.1755 35.4421 19.9999 35 19.9999Z" fill="#595959"/>
</svg>
