<svg width="20" height="22" viewBox="0 0 20 22" fill="none" xmlns="http://www.w3.org/2000/svg">
<path d="M10 0.866699C7.34874 0.869703 4.80693 1.93828 2.93221 3.838C1.05748 5.73772 0.00296443 8.31343 0 11C0.00444216 13.6862 1.05944 16.261 2.93384 18.1604C4.80824 20.0598 7.3492 21.1289 10 21.1334C12.6522 21.1334 15.1957 20.0658 17.0711 18.1654C18.9464 16.265 20 13.6876 20 11C20 8.31251 18.9464 5.73505 17.0711 3.83468C15.1957 1.93432 12.6522 0.866699 10 0.866699ZM16.0824 16.8474C15.5208 15.6995 14.6538 14.7335 13.5792 14.0583C12.5046 13.3832 11.2652 13.0258 10.0008 13.0265C8.73644 13.0271 7.49741 13.3859 6.42353 14.0621C5.34964 14.7384 4.48363 15.7054 3.9232 16.8539C2.42793 15.2824 1.59475 13.183 1.6 11C1.6 8.74251 2.485 6.57745 4.0603 4.98114C5.63561 3.38483 7.77218 2.48803 10 2.48803C12.2278 2.48803 14.3644 3.38483 15.9397 4.98114C17.515 6.57745 18.4 8.74251 18.4 11C18.405 13.1799 17.574 15.2766 16.0824 16.8474ZM10 4.92003C9.28799 4.92003 8.59196 5.13398 7.99995 5.53483C7.40793 5.93568 6.94651 6.50542 6.67403 7.172C6.40156 7.83859 6.33027 8.57208 6.46917 9.27972C6.60808 9.98737 6.95095 10.6374 7.45442 11.1476C7.95789 11.6577 8.59934 12.0052 9.29768 12.1459C9.99601 12.2867 10.7198 12.2145 11.3777 11.9383C12.0355 11.6622 12.5977 11.1947 12.9933 10.5948C13.3889 9.99484 13.6 9.28954 13.6 8.56803C13.6 8.08897 13.5069 7.6146 13.326 7.172C13.145 6.72941 12.8799 6.32726 12.5456 5.98851C12.2113 5.64976 11.8144 5.38105 11.3777 5.19772C10.9409 5.01439 10.4728 4.92003 10 4.92003Z" fill="#637692"/>
</svg>
