<svg width="22" height="22" viewBox="0 0 22 22" fill="none" xmlns="http://www.w3.org/2000/svg">
<path d="M11 17.4998C5.00431 17.4998 2 11.5013 2 10.7498C2 9.99826 5.00431 3.99976 11 3.99976C16.9957 3.99976 20 9.99826 20 10.7498C20 11.5013 16.9957 17.4998 11 17.4998ZM3.13316 10.7498C3.34297 11.443 5.93694 16.3748 11 16.3748C16.0631 16.3748 18.657 11.443 18.8668 10.7498C18.657 10.0565 16.0631 5.12476 11 5.12476C5.93694 5.12476 3.34297 10.0565 3.13316 10.7498ZM11 14.6873C8.82903 14.6873 7.0625 12.921 7.0625 10.7498C7.0625 8.57851 8.82903 6.81226 11 6.81226C13.171 6.81226 14.9375 8.57851 14.9375 10.7498C14.9375 12.921 13.171 14.6873 11 14.6873ZM11 7.93726C9.44919 7.93726 8.1875 9.19894 8.1875 10.7498C8.1875 12.3006 9.44919 13.5623 11 13.5623C12.5508 13.5623 13.8125 12.3006 13.8125 10.7498C13.8125 9.19894 12.5508 7.93726 11 7.93726Z" fill="black"/>
</svg>
